HIERARCHY
ROOT Hips
{
OFFSET -0.1795 -22.3333 2.8219000000000003
	CHANNELS 6 Xposition Yposition Zposition Zrotation Yrotation Xrotation 
	JOINT LeftUpLeg
	{
OFFSET 6.952 -9.140600000000001 -0.6815
		CHANNELS 3 Zrotation Yrotation Xrotation
		JOINT LeftLeg
		{
OFFSET 3.4277 -37.5199 -0.4496
			CHANNELS 3 Zrotation Yrotation Xrotation
			JOINT LeftFoot
			{
OFFSET -1.3596000000000001 -39.7961 -4.3693
				CHANNELS 3 Zrotation Yrotation Xrotation
				JOINT LeftToe
				{
OFFSET 2.6358 -5.5791 11.9288
					CHANNELS 3 Zrotation Yrotation Xrotation
					End Site
					{
OFFSET 0.0 0.0 0.0
					}
				}
			}
		}
	}
	JOINT RightUpLeg
	{
OFFSET -6.7669999999999995 -9.052200000000001 -0.432
		CHANNELS 3 Zrotation Yrotation Xrotation
		JOINT RightLeg
		{
OFFSET -3.8289999999999997 -38.2569 -0.885
			CHANNELS 3 Zrotation Yrotation Xrotation
			JOINT RightFoot
			{
OFFSET 1.5774 -39.8415 -4.2312
				CHANNELS 3 Zrotation Yrotation Xrotation
				JOINT RightToe
				{
OFFSET -2.5372 -4.8144 12.3348
					CHANNELS 3 Zrotation Yrotation Xrotation
					End Site
					{
OFFSET 0.0 0.0 0.0
					}
				}
			}
		}
	}
	JOINT Spine
	{
OFFSET -0.2533 10.8963 -2.6696
		CHANNELS 3 Zrotation Yrotation Xrotation
		JOINT Spine1
		{
OFFSET 0.5487 13.517999999999999 0.1092
			CHANNELS 3 Zrotation Yrotation Xrotation
			JOINT Spine2
			{
OFFSET 0.1457 5.292199999999999 2.5425
				CHANNELS 3 Zrotation Yrotation Xrotation
				JOINT Neck
				{
OFFSET -0.2778 21.387 -4.2857
					CHANNELS 3 Zrotation Yrotation Xrotation
					JOINT Head
					{
OFFSET 0.5152 6.497 5.1349
						CHANNELS 3 Zrotation Yrotation Xrotation
						End Site
						{
OFFSET 0.0 0.0 0.0
						}
					}
				}
				JOINT LeftShoulder
				{
OFFSET 7.8845 12.1749 -3.4090000000000003
					CHANNELS 3 Zrotation Yrotation Xrotation
					JOINT LeftArm
					{
OFFSET 9.0977 3.0469 -0.8867999999999999
						CHANNELS 3 Zrotation Yrotation Xrotation
						JOINT LeftForeArm
						{
OFFSET 25.9612 -1.2772000000000001 -2.7456
							CHANNELS 3 Zrotation Yrotation Xrotation
							JOINT LeftHand
							{
OFFSET 24.9234 0.8986 -0.1171
								CHANNELS 3 Zrotation Yrotation Xrotation
								End Site
								{
OFFSET 0.0 0.0 0.0
								}
							}
						}
					}
				}
				JOINT RightShoulder
				{
OFFSET -8.1759 11.8833 -3.8614999999999995
					CHANNELS 3 Zrotation Yrotation Xrotation
					JOINT RightArm
					{
OFFSET -9.6012 3.2550999999999997 -0.9143
						CHANNELS 3 Zrotation Yrotation Xrotation
						JOINT RightForeArm
						{
OFFSET -25.374200000000002 -1.3329 -2.1401
							CHANNELS 3 Zrotation Yrotation Xrotation
							JOINT RightHand
							{
OFFSET -25.5298 0.7772 -0.5559
								CHANNELS 3 Zrotation Yrotation Xrotation
								End Site
								{
OFFSET 0.0 0.0 0.0
								}
							}
						}
					}
				}
			}
		}
	}
}
MOTION
Frames: 16
Frame Time: 0.050000
-4.9018 93.0249 9.0381 -5.146773 -5.611305 4.773455 1.011128 -0.825113 -10.479028 -3.379026 0.809173 26.448203 3.549095 4.032080 -11.979268 0.000000 0.000000 0.000000 -2.035397 2.581710 -25.967791 15.106340 -5.299238 51.056913 -4.754794 -14.375707 12.110412 0.000000 0.000000 0.000000 -1.374359 -0.210583 8.813140 6.160625 -0.662409 -26.940615 1.949279 3.837450 31.738748 5.114871 -0.991858 -29.709549 0.000000 0.000000 0.000000 -24.668661 11.931579 -8.977707 -57.438387 6.146730 -12.370215 -18.029107 -45.060518 10.889117 0.000000 0.000000 0.000000 15.842199 1.047361 -0.075522 60.644794 3.446773 -7.252084 8.850957 41.869645 5.974183 0.000000 0.000000 0.000000
-5.9766 92.0639 10.1878 -5.357378 -6.267179 4.491161 0.420698 -0.878493 -10.619958 -2.346118 0.545279 28.704944 4.018968 4.923544 -13.544832 0.000000 0.000000 0.000000 -2.545036 2.376783 -24.669530 16.631747 -6.226377 53.583204 -4.945463 -14.676886 11.884869 0.000000 0.000000 0.000000 -2.392771 -0.120217 10.326677 5.648875 -0.559536 -26.973657 2.818282 4.861415 32.150276 5.279538 -0.706019 -32.017092 0.000000 0.000000 0.000000 -25.010544 12.129222 -9.416737 -55.882072 7.653409 -12.639863 -23.085698 -49.544315 14.394519 0.000000 0.000000 0.000000 13.605951 2.069764 0.648136 59.866949 5.825963 -5.949093 11.447801 48.542026 8.513447 0.000000 0.000000 0.000000
-7.062499999999999 92.2237 11.2468 -6.017354 -7.651165 5.685954 0.690968 -0.873714 -11.062512 -2.485524 0.752351 28.374320 4.460067 6.492818 -13.806490 0.000000 0.000000 0.000000 -2.778096 2.425982 -24.731225 17.124604 -6.402917 57.456631 -5.567813 -16.146985 14.546126 0.000000 0.000000 0.000000 -3.244326 0.003071 10.132814 5.673509 -0.579933 -26.742267 3.509780 5.947269 32.979063 5.360587 -0.552331 -33.460596 0.000000 0.000000 0.000000 -25.051317 12.135988 -9.513670 -54.642462 8.579709 -12.758949 -31.435402 -54.148300 20.465161 0.000000 0.000000 0.000000 10.276084 3.650993 1.453937 59.112708 9.088396 -4.244779 13.558390 55.345670 11.249506 0.000000 0.000000 0.000000
-8.189 92.8095 12.2036 -6.635780 -7.593745 7.620189 0.684616 -0.853805 -10.774766 -1.546785 0.341061 26.255669 4.813544 7.609543 -13.938775 0.000000 0.000000 0.000000 -2.833951 2.481826 -25.165080 17.831171 -7.550318 63.696562 -6.061457 -16.959351 15.417557 0.000000 0.000000 0.000000 -3.431427 0.043912 9.426234 4.138778 -0.296794 -26.207453 4.306561 5.560998 32.385602 5.000738 -0.394368 -33.679236 0.000000 0.000000 0.000000 -24.134539 11.760447 -8.989613 -53.348503 9.208372 -12.629485 -46.396225 -58.690439 31.838512 0.000000 0.000000 0.000000 7.438516 5.160766 2.017177 57.380207 10.772416 -3.222418 10.053480 62.490233 10.791637 0.000000 0.000000 0.000000
-9.393799999999999 93.3293 13.1163 -7.511520 -7.349321 8.634232 1.637808 -0.744922 -10.210398 -0.730821 0.005435 24.461968 4.203120 5.956906 -13.416230 0.000000 0.000000 0.000000 -2.416271 2.623410 -25.768304 18.398912 -9.424816 73.819234 -6.986730 -18.367031 16.658672 0.000000 0.000000 0.000000 -3.998897 0.122096 9.859393 3.727880 -0.257122 -25.491979 4.177909 5.508662 31.732126 5.306423 -0.388388 -34.916003 0.000000 0.000000 0.000000 -23.356147 11.124064 -8.476813 -51.346645 8.233069 -11.660809 -61.875546 -62.994439 45.617751 0.000000 0.000000 0.000000 6.796177 5.560293 2.175723 55.188789 12.867653 -2.119849 2.396772 67.209639 6.782006 0.000000 0.000000 0.000000
-10.7176 93.6392 14.0171 -8.432607 -6.694587 9.372645 3.614512 -0.596553 -9.916764 -0.697900 -0.043384 24.618497 3.739845 4.136155 -14.319529 0.000000 0.000000 0.000000 -1.751970 2.896657 -27.285465 19.106207 -12.233142 83.465439 -8.236118 -20.245634 13.044402 0.000000 0.000000 0.000000 -4.863522 0.257064 11.509733 4.090039 -0.305647 -25.700175 3.656119 5.889864 31.243058 6.583289 -0.871412 -34.777008 0.000000 0.000000 0.000000 -22.406596 9.188736 -7.358381 -49.106928 4.388898 -9.616057 -78.973061 -65.323704 61.168644 0.000000 0.000000 0.000000 7.730341 6.550408 2.714762 51.740423 13.034436 -1.990224 -7.392042 71.591317 0.503967 0.000000 0.000000 0.000000
-12.061399999999999 93.6759 14.9899 -9.187146 -5.197515 10.637507 5.570025 -0.518365 -10.637667 -0.580486 -0.185348 24.671386 3.136028 1.920968 -14.398334 0.000000 0.000000 0.000000 -2.601384 3.110814 -31.310165 19.631659 -15.532440 89.610504 -8.845713 -21.289526 11.243213 0.000000 0.000000 0.000000 -4.953353 0.274920 12.271260 3.712653 -0.290347 -24.446965 2.585556 3.959017 29.546403 6.788252 -1.063065 -35.060954 0.000000 0.000000 0.000000 -21.296989 7.386826 -5.798991 -48.312221 -0.154468 -7.717174 -92.822197 -67.759660 76.915941 0.000000 0.000000 0.000000 8.486162 7.467394 3.008255 49.642977 11.531490 -2.459338 -7.313484 74.135000 -0.107610 0.000000 0.000000 0.000000
-13.2678 93.625 16.151799999999998 -9.910681 -4.887918 12.617755 7.570435 -0.420392 -11.931172 -1.253120 0.050696 24.448749 2.368278 -0.239656 -14.011106 0.000000 0.000000 0.000000 -4.729550 3.289262 -37.960835 20.679482 -17.346623 89.641466 -9.844132 -23.242962 9.374030 0.000000 0.000000 0.000000 -4.985861 0.319083 13.510005 4.084063 -0.341126 -24.666276 0.607913 2.324009 28.394736 6.910874 -1.363669 -34.659455 0.000000 0.000000 0.000000 -20.174815 5.252668 -3.960687 -47.075088 -5.754698 -5.565864 -101.343083 -70.523962 89.443917 0.000000 0.000000 0.000000 10.676614 7.399025 2.806285 47.846313 10.387902 -2.781598 1.910379 74.955678 6.076445 0.000000 0.000000 0.000000
-14.349200000000002 93.4353 17.660999999999998 -10.421055 -4.838392 13.673936 8.713818 -0.349092 -11.286955 -1.231018 0.054469 23.983727 2.803883 0.147687 -16.030037 0.000000 0.000000 0.000000 -7.142207 3.099996 -43.768978 22.535403 -17.678093 82.499317 -10.746582 -25.145321 8.687445 0.000000 0.000000 0.000000 -4.850795 0.317241 14.175585 4.096493 -0.342880 -24.574250 -0.755423 0.009523 27.993654 6.002823 -1.257290 -34.914103 0.000000 0.000000 0.000000 -18.448406 2.820080 -1.793006 -47.319958 -11.430214 -3.577469 -102.633726 -74.649635 96.599013 0.000000 0.000000 0.000000 12.714194 8.126110 2.714031 48.220739 8.186123 -3.510271 20.424301 75.325565 19.395400 0.000000 0.000000 0.000000
-15.3669 92.6875 19.575400000000002 -10.947641 -4.540772 14.450673 10.077236 -0.290888 -9.684706 -1.627670 0.187058 24.016811 2.912498 0.651186 -15.719959 0.000000 0.000000 0.000000 -9.907972 2.445921 -49.049971 24.797836 -17.242782 71.898029 -11.057482 -26.028467 8.247707 0.000000 0.000000 0.000000 -4.078884 0.182154 15.905354 4.247035 -0.308912 -25.413573 -2.205518 -3.051378 27.761506 4.402431 -1.034757 -34.184540 0.000000 0.000000 0.000000 -18.578285 2.079043 -0.599653 -46.435607 -15.795123 -2.107276 -92.173232 -77.904193 90.722492 0.000000 0.000000 0.000000 12.509996 6.916092 1.532177 51.379865 4.602250 -5.048057 43.360550 71.085940 33.755762 0.000000 0.000000 0.000000
-16.4678 91.0819 22.0235 -11.719338 -5.502532 14.416173 11.182429 -0.221816 -7.450234 -2.304837 0.583016 26.645642 3.057763 1.144513 -16.194196 0.000000 0.000000 0.000000 -11.139432 2.467676 -53.774718 26.050795 -15.319381 62.011821 -11.132520 -26.865640 6.052546 0.000000 0.000000 0.000000 -4.244446 0.249632 17.457148 5.151794 -0.451058 -26.104941 -2.948007 -4.573522 27.989260 4.503059 -1.409299 -34.252359 0.000000 0.000000 0.000000 -19.765605 1.254961 0.473934 -44.296321 -19.740558 -0.976979 -55.352056 -80.435611 58.345633 0.000000 0.000000 0.000000 12.155154 5.230756 0.344788 52.811652 1.060324 -6.716440 49.823042 64.863968 33.663156 0.000000 0.000000 0.000000
-17.7406 88.8085 25.2301 -11.887170 -6.047670 13.468937 11.892397 -0.213609 -4.270305 -2.431672 0.787141 29.693853 3.493506 0.479534 -20.506521 0.000000 0.000000 0.000000 -13.744665 1.590302 -57.863736 28.581190 -15.178233 54.581407 -10.993273 -26.783737 6.070232 0.000000 0.000000 0.000000 -4.842316 0.400249 18.602516 6.081650 -0.625227 -26.347318 -3.853369 -7.425609 29.076975 4.975627 -2.109247 -34.913016 0.000000 0.000000 0.000000 -21.343819 0.145867 2.196052 -40.659060 -21.782935 -0.996517 -32.140778 -81.018615 38.649445 0.000000 0.000000 0.000000 11.788038 4.878080 -0.362192 50.852984 -4.940986 -8.895016 51.272767 62.046224 31.378522 0.000000 0.000000 0.000000
-19.2549 86.3575 29.6398 -11.656813 -6.357947 13.397085 12.945901 -0.267846 -0.428494 -3.243240 1.127265 29.149358 3.338241 0.100582 -20.448516 0.000000 0.000000 0.000000 -16.502562 0.399573 -61.592869 31.429489 -16.032927 50.728694 -10.609194 -25.977995 7.140209 0.000000 0.000000 0.000000 -5.075402 0.465453 18.485972 6.319697 -0.792879 -25.046691 -5.400355 -10.744697 27.882948 6.496667 -3.174488 -35.231766 0.000000 0.000000 0.000000 -23.173339 -0.240556 3.656859 -39.096118 -22.490261 -1.202010 -18.932471 -78.234931 26.516876 0.000000 0.000000 0.000000 11.224931 3.446509 -1.586005 48.604281 -11.572356 -10.795567 57.052890 59.822906 32.033722 0.000000 0.000000 0.000000
-20.9742 84.679 35.4345 -11.513259 -8.516602 13.685852 11.055525 -0.184167 5.408599 -1.026833 0.366520 26.207014 3.104322 1.126889 -18.713824 0.000000 0.000000 0.000000 -18.765275 0.034906 -63.939779 34.926612 -16.376082 46.163300 -11.815866 -27.918654 11.623733 0.000000 0.000000 0.000000 -5.776078 0.648077 16.740185 7.827762 -1.269945 -23.535266 -6.952221 -13.300678 28.174908 8.100497 -4.146842 -36.930964 0.000000 0.000000 0.000000 -21.161887 0.987810 3.598142 -41.056630 -24.511096 -0.335584 -21.999846 -78.008412 30.567789 0.000000 0.000000 0.000000 9.857749 0.595139 -3.120675 42.253958 -14.655994 -10.135173 57.811465 60.849560 31.437196 0.000000 0.000000 0.000000
-23.0164 83.8444 42.771100000000004 -11.448507 -9.523621 15.782242 9.570701 0.072669 11.716250 1.881813 -0.635752 19.812250 2.440253 1.031802 -15.326658 0.000000 0.000000 0.000000 -19.988069 -0.119973 -66.049799 38.607626 -16.390075 40.373928 -14.299633 -31.566200 15.926953 0.000000 0.000000 0.000000 -3.928141 0.239057 12.384567 9.076530 -1.650758 -22.418284 -9.185143 -17.733315 28.066695 6.272832 -4.687546 -32.708381 0.000000 0.000000 0.000000 -21.175757 5.288995 2.055994 -42.411016 -23.199733 -0.638293 -58.546475 -82.670214 69.158294 0.000000 0.000000 0.000000 7.240497 -1.834703 -3.966568 34.893955 -19.646547 -9.560401 62.790610 64.889471 35.422088 0.000000 0.000000 0.000000
-25.564999999999998 83.8596 51.709700000000005 -12.724305 -11.339121 18.978890 8.467988 0.463251 15.701657 3.880138 -1.069927 16.440828 1.477093 3.070402 -1.283389 0.000000 0.000000 0.000000 -18.275852 1.739423 -65.081231 39.906966 -15.694043 38.053099 -15.672802 -34.635553 14.249257 0.000000 0.000000 0.000000 -0.276552 -0.247291 6.879318 10.940182 -2.190101 -21.182580 -10.367904 -17.684583 25.758991 7.884883 -5.663521 -30.641321 0.000000 0.000000 0.000000 -20.649357 6.216001 1.552755 -44.897147 -17.671676 -2.142578 -110.807770 -75.178512 116.523777 0.000000 0.000000 0.000000 4.753191 -7.642936 -5.262750 28.221617 -21.869714 -8.150603 68.926617 66.893928 40.827228 0.000000 0.000000 0.000000
